solid front
facet normal -2.912367265266421e-17 0.7936063612919183 0.6084315436571326
  outer loop
    vertex 1348.7425421236824 1907.0232518552264 15.0
    vertex 1351.7425421236824 1918.5232518552264 0.0
    vertex 1348.7425421236824 1918.5232518552264 0.0
  endloop
endfacet
facet normal -2.912367265266421e-17 0.7936063612919183 0.6084315436571326
  outer loop
    vertex 1351.7425421236824 1918.5232518552264 0.0
    vertex 1348.7425421236824 1907.0232518552264 15.0
    vertex 1351.7425421236824 1907.0232518552264 15.0
  endloop
endfacet
facet normal -2.912367265266421e-17 0.7936063612919183 0.6084315436571326
  outer loop
    vertex 1351.7425421236824 1907.0232518552264 15.0
    vertex 1348.7425421236824 1907.0232518552264 15.0
    vertex 1349.8382036909275 1907.0232518552264 15.000000000000007
  endloop
endfacet
facet normal -4.0847196861497106e-27 0.8192319205190369 -0.5734623443633333
  outer loop
    vertex 1348.7425421236824 1858.0232518552264 15.0
    vertex 1351.7425421236824 1847.5232518552261 0.0
    vertex 1348.7425421236824 1847.5232518552261 0.0
  endloop
endfacet
facet normal -4.0847196861497106e-27 0.8192319205190369 -0.5734623443633333
  outer loop
    vertex 1351.7425421236824 1847.5232518552261 0.0
    vertex 1348.7425421236824 1858.0232518552264 15.0
    vertex 1351.7425421236824 1858.0232518552264 15.0
  endloop
endfacet
facet normal -0.0 1.0 -0.0
  outer loop
    vertex 1314.7425421236849 1847.5232518552261 -2.9999999999999996
    vertex 1364.7425421236821 1847.5232518552261 -22.999999999999524
    vertex 1314.7425421236849 1847.5232518552261 -22.99999999999961
  endloop
endfacet
facet normal -0.0 1.0 -0.0
  outer loop
    vertex 1364.7425421236821 1847.5232518552261 -22.999999999999524
    vertex 1314.7425421236849 1847.5232518552261 -2.9999999999999996
    vertex 1348.7425421236824 1847.5232518552261 -2.9999999999999996
  endloop
endfacet
facet normal -0.0 1.0 -0.0
  outer loop
    vertex 1364.7425421236821 1847.5232518552261 -22.999999999999524
    vertex 1348.7425421236824 1847.5232518552261 -2.9999999999999996
    vertex 1364.7425421236821 1847.5232518552261 4.712126161757995e-13
  endloop
endfacet
facet normal -0.0 1.0 -0.0
  outer loop
    vertex 1364.7425421236821 1847.5232518552261 4.712126161757995e-13
    vertex 1348.7425421236824 1847.5232518552261 -2.9999999999999996
    vertex 1351.7425421236824 1847.5232518552261 0.0
  endloop
endfacet
facet normal -0.0 1.0 -0.0
  outer loop
    vertex 1351.7425421236824 1847.5232518552261 0.0
    vertex 1348.7425421236824 1847.5232518552261 -2.9999999999999996
    vertex 1348.7425421236824 1847.5232518552261 0.0
  endloop
endfacet
facet normal 0.0 -1.0 0.0
  outer loop
    vertex 1364.7425421236821 1918.5232518552264 -22.999999999999524
    vertex 1314.7425421236853 1918.5232518552264 -2.9999999999999996
    vertex 1314.7425421236853 1918.5232518552264 -22.99999999999961
  endloop
endfacet
facet normal 0.0 -1.0 0.0
  outer loop
    vertex 1314.7425421236853 1918.5232518552264 -2.9999999999999996
    vertex 1364.7425421236821 1918.5232518552264 -22.999999999999524
    vertex 1348.7425421236824 1918.5232518552264 -2.9999999999999996
  endloop
endfacet
facet normal 0.0 -1.0 0.0
  outer loop
    vertex 1364.742542123682 1918.5232518552264 4.712126161757995e-13
    vertex 1348.7425421236824 1918.5232518552264 -2.9999999999999996
    vertex 1364.7425421236821 1918.5232518552264 -22.999999999999524
  endloop
endfacet
facet normal 0.0 -1.0 0.0
  outer loop
    vertex 1348.7425421236824 1918.5232518552264 -2.9999999999999996
    vertex 1364.742542123682 1918.5232518552264 4.712126161757995e-13
    vertex 1351.7425421236824 1918.5232518552264 0.0
  endloop
endfacet
facet normal 0.0 -1.0 0.0
  outer loop
    vertex 1348.7425421236824 1918.5232518552264 0.0
    vertex 1348.7425421236824 1918.5232518552264 -2.9999999999999996
    vertex 1351.7425421236824 1918.5232518552264 0.0
  endloop
endfacet
facet normal 1.0 -0.0 -0.0
  outer loop
    vertex 1348.7425421236824 1850.874273845673 -2.999999999999616
    vertex 1348.7425421236824 1847.5232518552261 0.0
    vertex 1348.7425421236824 1847.5232518552261 -2.9999999999999996
  endloop
endfacet
facet normal 1.0 -0.0 -0.0
  outer loop
    vertex 1348.7425421236824 1847.5232518552261 0.0
    vertex 1348.7425421236824 1850.874273845673 -2.999999999999616
    vertex 1348.7425421236824 1858.0232518552264 15.0
  endloop
endfacet
facet normal 1.0 -0.0 -0.0
  outer loop
    vertex 1348.7425421236824 1858.0232518552264 15.0
    vertex 1348.7425421236824 1850.874273845673 -2.999999999999616
    vertex 1348.7425421236824 1915.3416768751995 -2.999999999999616
  endloop
endfacet
facet normal 1.0 -0.0 -0.0
  outer loop
    vertex 1348.7425421236824 1858.0232518552264 15.0
    vertex 1348.7425421236824 1915.3416768751995 -2.999999999999616
    vertex 1348.7425421236824 1907.0232518552264 15.0
  endloop
endfacet
facet normal 1.0 -0.0 -0.0
  outer loop
    vertex 1348.7425421236824 1907.0232518552264 15.0
    vertex 1348.7425421236824 1915.3416768751995 -2.999999999999616
    vertex 1348.7425421236824 1918.5232518552264 0.0
  endloop
endfacet
facet normal 1.0 -0.0 -0.0
  outer loop
    vertex 1348.7425421236824 1918.5232518552264 0.0
    vertex 1348.7425421236824 1915.3416768751995 -2.999999999999616
    vertex 1348.7425421236824 1918.5232518552264 -2.9999999999999996
  endloop
endfacet
facet normal 1.669003840173517e-16 -3.7907814458476264e-17 1.0
  outer loop
    vertex 1351.7425421236824 1858.0232518552264 15.0
    vertex 1348.7425421236824 1907.0232518552264 15.0
    vertex 1348.7425421236824 1858.0232518552264 15.0
  endloop
endfacet
facet normal 1.669003840173517e-16 -3.7907814458476264e-17 1.0
  outer loop
    vertex 1348.7425421236824 1907.0232518552264 15.0
    vertex 1351.7425421236824 1858.0232518552264 15.0
    vertex 1349.8382036909275 1907.0232518552264 15.000000000000007
  endloop
endfacet
facet normal 1.669003840173517e-16 -3.7907814458476264e-17 1.0
  outer loop
    vertex 1349.8382036909275 1907.0232518552264 15.000000000000007
    vertex 1351.7425421236824 1858.0232518552264 15.0
    vertex 1351.7425421236824 1907.0232518552264 15.0
  endloop
endfacet
facet normal -0.99999999999999 -4.353680014778706e-08 -1.3523159365579655e-07
  outer loop
    vertex 1351.7425381039188 1907.0225327561388 14.862576594017968
    vertex 1351.7425421236824 1860.8580409836093 0.0
    vertex 1351.7425421236824 1860.8580409836093 14.86263227490655
  endloop
endfacet
facet normal -0.99999999999999 -4.353680014778706e-08 -1.3523159365579655e-07
  outer loop
    vertex 1351.7425421236824 1860.8580409836093 0.0
    vertex 1351.7425381039188 1907.0225327561388 14.862576594017968
    vertex 1351.7425421236824 1907.0232518552264 0.0
  endloop
endfacet
facet normal -1.0 -2.032622004802936e-15 -3.896486848841827e-15
  outer loop
    vertex 1364.7425421236821 1854.942370226662 3.1704862231589975e-13
    vertex 1364.7425421236821 1847.5232518552261 -22.999999999999524
    vertex 1364.7425421236821 1847.5232518552261 4.712126161757995e-13
  endloop
endfacet
facet normal -1.0 -2.032622004802936e-15 -3.896486848841827e-15
  outer loop
    vertex 1364.7425421236821 1847.5232518552261 -22.999999999999524
    vertex 1364.7425421236821 1854.942370226662 3.1704862231589975e-13
    vertex 1364.7425421236821 1918.5232518552264 -22.999999999999524
  endloop
endfacet
facet normal -1.0 -2.032622004802936e-15 -3.896486848841827e-15
  outer loop
    vertex 1364.7425421236821 1918.5232518552264 -22.999999999999524
    vertex 1364.7425421236821 1854.942370226662 3.1704862231589975e-13
    vertex 1364.7425421236821 1860.1117819025792 3.357146845127993e-13
  endloop
endfacet
facet normal -1.0 -2.032622004802936e-15 -3.896486848841827e-15
  outer loop
    vertex 1364.7425421236821 1918.5232518552264 -22.999999999999524
    vertex 1364.7425421236821 1860.1117819025792 3.357146845127993e-13
    vertex 1364.742542123682 1906.9899148286004 3.2233766015827625e-13
  endloop
endfacet
facet normal -1.0 -2.032622004802936e-15 -3.896486848841827e-15
  outer loop
    vertex 1364.7425421236821 1918.5232518552264 -22.999999999999524
    vertex 1364.742542123682 1906.9899148286004 3.2233766015827625e-13
    vertex 1364.742542123682 1911.8782916657171 2.928273504451517e-13
  endloop
endfacet
facet normal -1.0 -2.032622004802936e-15 -3.896486848841827e-15
  outer loop
    vertex 1364.7425421236821 1918.5232518552264 -22.999999999999524
    vertex 1364.742542123682 1911.8782916657171 2.928273504451517e-13
    vertex 1364.742542123682 1918.5232518552264 4.712126161757995e-13
  endloop
endfacet
facet normal 3.3353194389916663e-14 -1.7859176653026535e-14 -1.0
  outer loop
    vertex 1364.7425421236821 1854.942370226662 3.1704862231589975e-13
    vertex 1351.7425421236824 1847.5232518552261 0.0
    vertex 1351.7425421236824 1850.5232518552264 0.0
  endloop
endfacet
facet normal 3.3353194389916663e-14 -1.7859176653026535e-14 -1.0
  outer loop
    vertex 1351.7425421236824 1847.5232518552261 0.0
    vertex 1364.7425421236821 1854.942370226662 3.1704862231589975e-13
    vertex 1364.7425421236821 1847.5232518552261 4.712126161757995e-13
  endloop
endfacet
facet normal -0.0 -0.0 1.0
  outer loop
    vertex 1361.742542123682 1850.874273845673 -2.999999999999616
    vertex 1348.7425421236824 1915.3416768751995 -2.999999999999616
    vertex 1348.7425421236824 1850.874273845673 -2.999999999999616
  endloop
endfacet
facet normal -0.0 -0.0 1.0
  outer loop
    vertex 1348.7425421236824 1915.3416768751995 -2.999999999999616
    vertex 1361.742542123682 1850.874273845673 -2.999999999999616
    vertex 1361.742542123682 1915.3416768751995 -2.999999999999616
  endloop
endfacet
facet normal -2.8199664825478597e-14 -1.3137154460438572e-32 1.0
  outer loop
    vertex 1364.7425421236821 1847.5232518552261 -22.999999999999524
    vertex 1314.7425421236849 1850.874273845673 -22.99999999999961
    vertex 1314.7425421236849 1847.5232518552261 -22.99999999999961
  endloop
endfacet
facet normal -2.8199664825478597e-14 -1.3137154460438572e-32 1.0
  outer loop
    vertex 1314.7425421236849 1850.874273845673 -22.99999999999961
    vertex 1364.7425421236821 1847.5232518552261 -22.999999999999524
    vertex 1361.742542123682 1850.874273845673 -22.99999999999961
  endloop
endfacet
facet normal -2.8199664825478597e-14 -1.3137154460438572e-32 1.0
  outer loop
    vertex 1361.742542123682 1850.874273845673 -22.99999999999961
    vertex 1364.7425421236821 1847.5232518552261 -22.999999999999524
    vertex 1361.742542123682 1915.3416768751995 -22.99999999999961
  endloop
endfacet
facet normal -2.8199664825478597e-14 -1.3137154460438572e-32 1.0
  outer loop
    vertex 1361.742542123682 1915.3416768751995 -22.99999999999961
    vertex 1314.7425421236853 1918.5232518552264 -22.99999999999961
    vertex 1314.7425421236853 1915.3416768751995 -22.99999999999961
  endloop
endfacet
facet normal -2.8199664825478597e-14 -1.3137154460438572e-32 1.0
  outer loop
    vertex 1314.7425421236853 1918.5232518552264 -22.99999999999961
    vertex 1361.742542123682 1915.3416768751995 -22.99999999999961
    vertex 1364.7425421236821 1918.5232518552264 -22.999999999999524
  endloop
endfacet
facet normal -2.8199664825478597e-14 -1.3137154460438572e-32 1.0
  outer loop
    vertex 1364.7425421236821 1918.5232518552264 -22.999999999999524
    vertex 1361.742542123682 1915.3416768751995 -22.99999999999961
    vertex 1364.7425421236821 1847.5232518552261 -22.999999999999524
  endloop
endfacet
facet normal -0.5892984014327581 0.807915462204305 3.136914873797326e-18
  outer loop
    vertex 1364.7425421236821 1847.5232518552261 4.712126161757995e-13
    vertex 1370.4704387025522 1851.7012140993093 -22.99999999999952
    vertex 1364.7425421236821 1847.5232518552261 -22.999999999999524
  endloop
endfacet
facet normal -0.5892984014327581 0.807915462204305 3.136914873797326e-18
  outer loop
    vertex 1370.4704387025522 1851.7012140993093 -22.99999999999952
    vertex 1364.7425421236821 1847.5232518552261 4.712126161757995e-13
    vertex 1370.4704387025522 1851.7012140993093 4.712126161757995e-13
  endloop
endfacet
facet normal -0.7181982067847067 0.6958385845663 0.0
  outer loop
    vertex 1375.4037412997184 1856.7930402173151 4.712126161757995e-13
    vertex 1370.4704387025522 1851.7012140993093 -22.99999999999952
    vertex 1370.4704387025522 1851.7012140993093 4.712126161757995e-13
  endloop
endfacet
facet normal -0.7181982067847067 0.6958385845663 0.0
  outer loop
    vertex 1370.4704387025522 1851.7012140993093 -22.99999999999952
    vertex 1375.4037412997184 1856.7930402173151 4.712126161757995e-13
    vertex 1375.4037412997184 1856.7930402173151 -22.99999999999952
  endloop
endfacet
facet normal -0.8261435838005888 0.5634596515679892 0.0
  outer loop
    vertex 1376.9783378211102 1859.1017109617112 4.712126161757995e-13
    vertex 1375.4037412997184 1856.7930402173151 -22.99999999999952
    vertex 1375.4037412997184 1856.7930402173151 4.712126161757995e-13
  endloop
endfacet
facet normal -0.8261435838005888 0.5634596515679892 0.0
  outer loop
    vertex 1375.4037412997184 1856.7930402173151 -22.99999999999952
    vertex 1376.9783378211102 1859.1017109617112 4.712126161757995e-13
    vertex 1376.9783378211102 1859.1017109617112 -22.99999999999952
  endloop
endfacet
facet normal -0.7181982067847003 -0.6958385845663065 -2.8140208815513216e-15
  outer loop
    vertex 1370.4704387025522 1914.3452896111437 4.712126161757995e-13
    vertex 1375.4037412997186 1909.2534634931378 -22.99999999999952
    vertex 1375.4037412997186 1909.2534634931378 4.712126161757995e-13
  endloop
endfacet
facet normal -0.7181982067847003 -0.6958385845663065 -2.8140208815513216e-15
  outer loop
    vertex 1375.4037412997186 1909.2534634931378 -22.99999999999952
    vertex 1370.4704387025522 1914.3452896111437 4.712126161757995e-13
    vertex 1370.4704387025524 1914.3452896111437 -22.99999999999952
  endloop
endfacet
facet normal -0.5892984014327128 -0.8079154622043382 -4.631613777578183e-15
  outer loop
    vertex 1370.4704387025524 1914.3452896111437 -22.99999999999952
    vertex 1364.742542123682 1918.5232518552264 4.712126161757995e-13
    vertex 1364.7425421236821 1918.5232518552264 -22.999999999999524
  endloop
endfacet
facet normal -0.5892984014327128 -0.8079154622043382 -4.631613777578183e-15
  outer loop
    vertex 1364.742542123682 1918.5232518552264 4.712126161757995e-13
    vertex 1370.4704387025524 1914.3452896111437 -22.99999999999952
    vertex 1370.4704387025522 1914.3452896111437 4.712126161757995e-13
  endloop
endfacet
facet normal 1.7973430233721455e-14 -1.9006391358236526e-14 -1.0
  outer loop
    vertex 1376.9783378211102 1859.1017109617112 4.712126161757995e-13
    vertex 1364.7425421236821 1847.5232518552261 4.712126161757995e-13
    vertex 1364.7425421236821 1854.942370226662 3.1704862231589975e-13
  endloop
endfacet
facet normal 1.7973430233721455e-14 -1.9006391358236526e-14 -1.0
  outer loop
    vertex 1364.7425421236821 1847.5232518552261 4.712126161757995e-13
    vertex 1376.9783378211102 1859.1017109617112 4.712126161757995e-13
    vertex 1370.4704387025522 1851.7012140993093 4.712126161757995e-13
  endloop
endfacet
facet normal 1.7973430233721455e-14 -1.9006391358236526e-14 -1.0
  outer loop
    vertex 1370.4704387025522 1851.7012140993093 4.712126161757995e-13
    vertex 1376.9783378211102 1859.1017109617112 4.712126161757995e-13
    vertex 1375.4037412997184 1856.7930402173151 4.712126161757995e-13
  endloop
endfacet
facet normal -2.079537257119357e-16 -4.361444486464875e-18 1.0
  outer loop
    vertex 1370.4704387025522 1851.7012140993093 -22.99999999999952
    vertex 1364.7425421236821 1918.5232518552264 -22.999999999999524
    vertex 1364.7425421236821 1847.5232518552261 -22.999999999999524
  endloop
endfacet
facet normal -2.079537257119357e-16 -4.361444486464875e-18 1.0
  outer loop
    vertex 1364.7425421236821 1918.5232518552264 -22.999999999999524
    vertex 1370.4704387025522 1851.7012140993093 -22.99999999999952
    vertex 1370.4704387025524 1914.3452896111437 -22.99999999999952
  endloop
endfacet
facet normal -2.079537257119357e-16 -4.361444486464875e-18 1.0
  outer loop
    vertex 1370.4704387025524 1914.3452896111437 -22.99999999999952
    vertex 1370.4704387025522 1851.7012140993093 -22.99999999999952
    vertex 1375.4037412997184 1856.7930402173151 -22.99999999999952
  endloop
endfacet
facet normal -2.079537257119357e-16 -4.361444486464875e-18 1.0
  outer loop
    vertex 1370.4704387025524 1914.3452896111437 -22.99999999999952
    vertex 1375.4037412997184 1856.7930402173151 -22.99999999999952
    vertex 1375.4037412997186 1909.2534634931378 -22.99999999999952
  endloop
endfacet
facet normal -2.079537257119357e-16 -4.361444486464875e-18 1.0
  outer loop
    vertex 1375.4037412997186 1909.2534634931378 -22.99999999999952
    vertex 1375.4037412997184 1856.7930402173151 -22.99999999999952
    vertex 1376.9783378211102 1859.1017109617112 -22.99999999999952
  endloop
endfacet
facet normal -2.079537257119357e-16 -4.361444486464875e-18 1.0
  outer loop
    vertex 1375.4037412997186 1909.2534634931378 -22.99999999999952
    vertex 1376.9783378211102 1859.1017109617112 -22.99999999999952
    vertex 1376.9783378211105 1906.9447927487415 -22.99999999999952
  endloop
endfacet
facet normal -2.079537257119357e-16 -4.361444486464875e-18 1.0
  outer loop
    vertex 1376.9783378211105 1906.9447927487415 -22.99999999999952
    vertex 1376.9783378211102 1859.1017109617112 -22.99999999999952
    vertex 1382.3382036909275 1859.1017109617112 -22.99999999999952
  endloop
endfacet
facet normal -2.079537257119357e-16 -4.361444486464875e-18 1.0
  outer loop
    vertex 1376.9783378211105 1906.9447927487415 -22.99999999999952
    vertex 1382.3382036909275 1859.1017109617112 -22.99999999999952
    vertex 1382.3382036909275 1906.9447927487415 -22.99999999999952
  endloop
endfacet
facet normal -2.079537257119357e-16 -4.361444486464875e-18 1.0
  outer loop
    vertex 1382.3382036909275 1906.9447927487415 -22.99999999999952
    vertex 1382.3382036909275 1859.1017109617112 -22.99999999999952
    vertex 1382.3382036909275 1895.9447927487415 -22.999999999999517
  endloop
endfacet
facet normal -1.0 0.0 0.0
  outer loop
    vertex 1382.3382036909275 1906.9447927487415 4.712126161757995e-13
    vertex 1382.3382036909275 1859.1017109617112 -22.99999999999952
    vertex 1382.3382036909275 1859.1017109617112 4.712126161757995e-13
  endloop
endfacet
facet normal -1.0 0.0 0.0
  outer loop
    vertex 1382.3382036909275 1859.1017109617112 -22.99999999999952
    vertex 1382.3382036909275 1906.9447927487415 4.712126161757995e-13
    vertex 1382.3382036909275 1895.9447927487415 -22.999999999999517
  endloop
endfacet
facet normal -1.0 0.0 0.0
  outer loop
    vertex 1382.3382036909275 1895.9447927487415 -22.999999999999517
    vertex 1382.3382036909275 1906.9447927487415 4.712126161757995e-13
    vertex 1382.3382036909275 1906.9447927487415 -22.99999999999952
  endloop
endfacet
facet normal -0.0 1.0 -0.0
  outer loop
    vertex 1376.9783378211102 1859.1017109617112 4.712126161757995e-13
    vertex 1382.3382036909275 1859.1017109617112 -22.99999999999952
    vertex 1376.9783378211102 1859.1017109617112 -22.99999999999952
  endloop
endfacet
facet normal -0.0 1.0 -0.0
  outer loop
    vertex 1382.3382036909275 1859.1017109617112 -22.99999999999952
    vertex 1376.9783378211102 1859.1017109617112 4.712126161757995e-13
    vertex 1382.3382036909275 1859.1017109617112 4.712126161757995e-13
  endloop
endfacet
facet normal -0.8261435838005888 -0.5634596515679892 5.188034948163699e-18
  outer loop
    vertex 1375.7110193089807 1908.8029329980288 4.201790262723257e-13
    vertex 1376.9783378211105 1906.9447927487415 -22.99999999999952
    vertex 1376.9783378211105 1906.9447927487415 4.712126161757995e-13
  endloop
endfacet
facet normal -0.8261435838005888 -0.5634596515679892 5.188034948163699e-18
  outer loop
    vertex 1376.9783378211105 1906.9447927487415 -22.99999999999952
    vertex 1375.7110193089807 1908.8029329980288 4.201790262723257e-13
    vertex 1375.4037412997186 1909.2534634931378 -22.99999999999952
  endloop
endfacet
facet normal -0.8261435838005888 -0.5634596515679892 5.188034948163699e-18
  outer loop
    vertex 1375.4037412997186 1909.2534634931378 -22.99999999999952
    vertex 1375.7110193089807 1908.8029329980288 4.201790262723257e-13
    vertex 1375.4037412997186 1909.2534634931378 4.712126161757995e-13
  endloop
endfacet
facet normal 0.0 -1.0 0.0
  outer loop
    vertex 1382.3382036909275 1906.9447927487415 4.712126161757995e-13
    vertex 1376.9783378211105 1906.9447927487415 -22.99999999999952
    vertex 1382.3382036909275 1906.9447927487415 -22.99999999999952
  endloop
endfacet
facet normal 0.0 -1.0 0.0
  outer loop
    vertex 1376.9783378211105 1906.9447927487415 -22.99999999999952
    vertex 1382.3382036909275 1906.9447927487415 4.712126161757995e-13
    vertex 1376.9783378211105 1906.9447927487415 4.712126161757995e-13
  endloop
endfacet
facet normal 1.0 -0.0 -0.0
  outer loop
    vertex 1361.742542123682 1915.3416768751995 -22.99999999999961
    vertex 1361.742542123682 1850.874273845673 -2.999999999999616
    vertex 1361.742542123682 1850.874273845673 -22.99999999999961
  endloop
endfacet
facet normal 1.0 -0.0 -0.0
  outer loop
    vertex 1361.742542123682 1850.874273845673 -2.999999999999616
    vertex 1361.742542123682 1915.3416768751995 -22.99999999999961
    vertex 1361.742542123682 1915.3416768751995 -2.999999999999616
  endloop
endfacet
facet normal 0.0 -1.0 0.0
  outer loop
    vertex 1361.742542123682 1850.874273845673 -2.999999999999616
    vertex 1314.7425421236849 1850.874273845673 -22.99999999999961
    vertex 1361.742542123682 1850.874273845673 -22.99999999999961
  endloop
endfacet
facet normal 0.0 -1.0 0.0
  outer loop
    vertex 1314.7425421236849 1850.874273845673 -22.99999999999961
    vertex 1361.742542123682 1850.874273845673 -2.999999999999616
    vertex 1314.7425421236849 1850.874273845673 -2.999999999999616
  endloop
endfacet
facet normal 0.0 -1.0 0.0
  outer loop
    vertex 1314.7425421236849 1850.874273845673 -2.999999999999616
    vertex 1361.742542123682 1850.874273845673 -2.999999999999616
    vertex 1348.7425421236824 1850.874273845673 -2.999999999999616
  endloop
endfacet
facet normal 1.0 0.0 0.0
  outer loop
    vertex 1314.7425421236849 1850.874273845673 -22.99999999999961
    vertex 1314.7425421236849 1847.5232518552261 -2.9999999999999996
    vertex 1314.7425421236849 1847.5232518552261 -22.99999999999961
  endloop
endfacet
facet normal 1.0 0.0 0.0
  outer loop
    vertex 1314.7425421236849 1847.5232518552261 -2.9999999999999996
    vertex 1314.7425421236849 1850.874273845673 -22.99999999999961
    vertex 1314.7425421236849 1850.874273845673 -2.999999999999616
  endloop
endfacet
facet normal -0.0 1.1444730673801727e-13 -1.0
  outer loop
    vertex 1348.7425421236824 1850.874273845673 -2.999999999999616
    vertex 1314.7425421236849 1847.5232518552261 -2.9999999999999996
    vertex 1314.7425421236849 1850.874273845673 -2.999999999999616
  endloop
endfacet
facet normal -0.0 1.1444730673801727e-13 -1.0
  outer loop
    vertex 1314.7425421236849 1847.5232518552261 -2.9999999999999996
    vertex 1348.7425421236824 1850.874273845673 -2.999999999999616
    vertex 1348.7425421236824 1847.5232518552261 -2.9999999999999996
  endloop
endfacet
facet normal -0.0 1.0 -0.0
  outer loop
    vertex 1314.7425421236853 1915.3416768751995 -2.999999999999616
    vertex 1361.742542123682 1915.3416768751995 -22.99999999999961
    vertex 1314.7425421236853 1915.3416768751995 -22.99999999999961
  endloop
endfacet
facet normal -0.0 1.0 -0.0
  outer loop
    vertex 1361.742542123682 1915.3416768751995 -22.99999999999961
    vertex 1314.7425421236853 1915.3416768751995 -2.999999999999616
    vertex 1361.742542123682 1915.3416768751995 -2.999999999999616
  endloop
endfacet
facet normal -0.0 1.0 -0.0
  outer loop
    vertex 1361.742542123682 1915.3416768751995 -2.999999999999616
    vertex 1314.7425421236853 1915.3416768751995 -2.999999999999616
    vertex 1348.7425421236824 1915.3416768751995 -2.999999999999616
  endloop
endfacet
facet normal 1.0 0.0 0.0
  outer loop
    vertex 1314.7425421236853 1918.5232518552264 -22.99999999999961
    vertex 1314.7425421236853 1915.3416768751995 -2.999999999999616
    vertex 1314.7425421236853 1915.3416768751995 -22.99999999999961
  endloop
endfacet
facet normal 1.0 0.0 0.0
  outer loop
    vertex 1314.7425421236853 1915.3416768751995 -2.999999999999616
    vertex 1314.7425421236853 1918.5232518552264 -22.99999999999961
    vertex 1314.7425421236853 1918.5232518552264 -2.9999999999999996
  endloop
endfacet
facet normal -0.0 -1.20542638169503e-13 -1.0
  outer loop
    vertex 1348.7425421236824 1918.5232518552264 -2.9999999999999996
    vertex 1314.7425421236853 1915.3416768751995 -2.999999999999616
    vertex 1314.7425421236853 1918.5232518552264 -2.9999999999999996
  endloop
endfacet
facet normal -0.0 -1.20542638169503e-13 -1.0
  outer loop
    vertex 1314.7425421236853 1915.3416768751995 -2.999999999999616
    vertex 1348.7425421236824 1918.5232518552264 -2.9999999999999996
    vertex 1348.7425421236824 1915.3416768751995 -2.999999999999616
  endloop
endfacet
facet normal -0.0 1.0 -0.0
  outer loop
    vertex 1314.7425421236849 1847.5232518552261 -2.9999999999999996
    vertex 1314.7425421236849 1847.5232518552261 -22.99999999999961
    vertex 1294.7425421236849 1847.5232518552261 -2.9999999999999996
  endloop
endfacet
facet normal -1.863903492695689e-41 1.1444730673801727e-13 -1.0
  outer loop
    vertex 1298.7425421236849 1850.874273845673 -2.999999999999616
    vertex 1294.7425421236849 1847.5232518552261 -2.9999999999999996
    vertex 1294.7425421236849 1850.874273845673 -2.999999999999616
  endloop
endfacet
facet normal -1.863903492695689e-41 1.1444730673801727e-13 -1.0
  outer loop
    vertex 1294.7425421236849 1847.5232518552261 -2.9999999999999996
    vertex 1298.7425421236849 1850.874273845673 -2.999999999999616
    vertex 1314.7425421236849 1847.5232518552261 -2.9999999999999996
  endloop
endfacet
facet normal -1.863903492695689e-41 1.1444730673801727e-13 -1.0
  outer loop
    vertex 1314.7425421236849 1847.5232518552261 -2.9999999999999996
    vertex 1298.7425421236849 1850.874273845673 -2.999999999999616
    vertex 1308.742542123685 1850.874273845673 -3.0000000000001883
  endloop
endfacet
facet normal -1.863903492695689e-41 1.1444730673801727e-13 -1.0
  outer loop
    vertex 1314.7425421236849 1847.5232518552261 -2.9999999999999996
    vertex 1308.742542123685 1850.874273845673 -3.0000000000001883
    vertex 1314.7425421236849 1850.874273845673 -2.999999999999616
  endloop
endfacet
facet normal 0.7071067811865447 -4.04520027405508e-14 0.7071067811865503
  outer loop
    vertex 1314.7425421236849 1847.5232518552261 -22.99999999999961
    vertex 1294.7425421236849 1850.874273845673 -2.999999999999616
    vertex 1294.7425421236849 1847.5232518552261 -2.9999999999999996
  endloop
endfacet
facet normal 0.7071067811865447 -4.04520027405508e-14 0.7071067811865503
  outer loop
    vertex 1294.7425421236849 1850.874273845673 -2.999999999999616
    vertex 1314.7425421236849 1847.5232518552261 -22.99999999999961
    vertex 1314.7425421236849 1850.874273845673 -22.99999999999961
  endloop
endfacet
facet normal 0.0 -1.0 0.0
  outer loop
    vertex 1314.7425421236849 1850.874273845673 -2.999999999999616
    vertex 1308.742542123685 1850.874273845673 -3.0000000000001883
    vertex 1314.7425421236849 1850.874273845673 -22.99999999999961
  endloop
endfacet
facet normal 0.0 -1.0 0.0
  outer loop
    vertex 1308.742542123685 1850.874273845673 -3.0000000000001883
    vertex 1294.7425421236849 1850.874273845673 -2.999999999999616
    vertex 1314.7425421236849 1850.874273845673 -22.99999999999961
  endloop
endfacet
facet normal 0.0 -1.0 0.0
  outer loop
    vertex 1294.7425421236849 1850.874273845673 -2.999999999999616
    vertex 1308.742542123685 1850.874273845673 -3.0000000000001883
    vertex 1298.7425421236849 1850.874273845673 -2.999999999999616
  endloop
endfacet
facet normal -1.9631728409057163e-41 -1.20542638169503e-13 -1.0
  outer loop
    vertex 1314.7425421236853 1918.5232518552264 -2.9999999999999996
    vertex 1294.7425421236849 1915.3416768751995 -2.999999999999616
    vertex 1294.7425421236849 1918.5232518552264 -2.9999999999999996
  endloop
endfacet
facet normal -1.9631728409057163e-41 -1.20542638169503e-13 -1.0
  outer loop
    vertex 1294.7425421236849 1915.3416768751995 -2.999999999999616
    vertex 1314.7425421236853 1918.5232518552264 -2.9999999999999996
    vertex 1298.7425421236849 1915.3416768751995 -2.999999999999616
  endloop
endfacet
facet normal -1.9631728409057163e-41 -1.20542638169503e-13 -1.0
  outer loop
    vertex 1298.7425421236849 1915.3416768751995 -2.999999999999616
    vertex 1314.7425421236853 1918.5232518552264 -2.9999999999999996
    vertex 1308.742542123685 1915.3416768751995 -3.0000000000002185
  endloop
endfacet
facet normal -1.9631728409057163e-41 -1.20542638169503e-13 -1.0
  outer loop
    vertex 1308.742542123685 1915.3416768751995 -3.0000000000002185
    vertex 1314.7425421236853 1918.5232518552264 -2.9999999999999996
    vertex 1314.7425421236853 1915.3416768751995 -2.999999999999616
  endloop
endfacet
facet normal 0.0 -1.0 0.0
  outer loop
    vertex 1294.7425421236849 1918.5232518552264 -2.9999999999999996
    vertex 1314.7425421236853 1918.5232518552264 -22.99999999999961
    vertex 1314.7425421236853 1918.5232518552264 -2.9999999999999996
  endloop
endfacet
facet normal -0.0 1.0 -0.0
  outer loop
    vertex 1294.7425421236849 1915.3416768751995 -2.999999999999616
    vertex 1308.742542123685 1915.3416768751995 -3.0000000000002185
    vertex 1314.7425421236853 1915.3416768751995 -22.99999999999961
  endloop
endfacet
facet normal -0.0 1.0 -0.0
  outer loop
    vertex 1308.742542123685 1915.3416768751995 -3.0000000000002185
    vertex 1294.7425421236849 1915.3416768751995 -2.999999999999616
    vertex 1298.7425421236849 1915.3416768751995 -2.999999999999616
  endloop
endfacet
facet normal -0.0 1.0 -0.0
  outer loop
    vertex 1314.7425421236853 1915.3416768751995 -2.999999999999616
    vertex 1314.7425421236853 1915.3416768751995 -22.99999999999961
    vertex 1308.742542123685 1915.3416768751995 -3.0000000000002185
  endloop
endfacet
facet normal 0.7071067811865384 4.284290632859945e-14 0.7071067811865568
  outer loop
    vertex 1314.7425421236853 1915.3416768751995 -22.99999999999961
    vertex 1294.7425421236849 1918.5232518552264 -2.9999999999999996
    vertex 1294.7425421236849 1915.3416768751995 -2.999999999999616
  endloop
endfacet
facet normal 0.7071067811865384 4.284290632859945e-14 0.7071067811865568
  outer loop
    vertex 1294.7425421236849 1918.5232518552264 -2.9999999999999996
    vertex 1314.7425421236853 1915.3416768751995 -22.99999999999961
    vertex 1314.7425421236853 1918.5232518552264 -22.99999999999961
  endloop
endfacet
facet normal -3.013839178223044e-14 -3.013839178223098e-14 -1.0
  outer loop
    vertex 1308.742542123685 1915.3416768751995 -3.0000000000002185
    vertex 1298.7425421236849 1905.3416768751997 -2.999999999999616
    vertex 1298.7425421236849 1915.3416768751995 -2.999999999999616
  endloop
endfacet
facet normal -3.013839178223044e-14 -3.013839178223098e-14 -1.0
  outer loop
    vertex 1298.7425421236849 1905.3416768751997 -2.999999999999616
    vertex 1308.742542123685 1915.3416768751995 -3.0000000000002185
    vertex 1308.742542123685 1905.3416768751997 -2.999999999999616
  endloop
endfacet
facet normal -0.0 1.0 -0.0
  outer loop
    vertex 1298.7425421236849 1905.3416768751997 -2.999999999999616
    vertex 1308.742542123685 1905.3416768751997 -5.999999999999615
    vertex 1298.7425421236849 1905.3416768751997 -5.999999999999615
  endloop
endfacet
facet normal -0.0 1.0 -0.0
  outer loop
    vertex 1308.742542123685 1905.3416768751997 -5.999999999999615
    vertex 1298.7425421236849 1905.3416768751997 -2.999999999999616
    vertex 1308.742542123685 1905.3416768751997 -2.999999999999616
  endloop
endfacet
facet normal 1.0 -0.0 -0.0
  outer loop
    vertex 1298.7425421236849 1912.3416768751995 -5.999999999999615
    vertex 1298.7425421236849 1905.3416768751997 -2.999999999999616
    vertex 1298.7425421236849 1905.3416768751997 -5.999999999999615
  endloop
endfacet
facet normal 1.0 -0.0 -0.0
  outer loop
    vertex 1298.7425421236849 1905.3416768751997 -2.999999999999616
    vertex 1298.7425421236849 1912.3416768751995 -5.999999999999615
    vertex 1298.7425421236849 1915.3416768751995 -2.999999999999616
  endloop
endfacet
facet normal 1.0 -0.0 -0.0
  outer loop
    vertex 1298.7425421236849 1915.3416768751995 -2.999999999999616
    vertex 1298.7425421236849 1912.3416768751995 -5.999999999999615
    vertex 1298.7425421236849 1914.3416768751997 -5.999999999999615
  endloop
endfacet
facet normal 1.0 -0.0 -0.0
  outer loop
    vertex 1298.7425421236849 1915.3416768751995 -2.999999999999616
    vertex 1298.7425421236849 1914.3416768751997 -5.999999999999615
    vertex 1298.7425421236849 1915.3416768751995 -5.999999999999615
  endloop
endfacet
facet normal -1.0 0.0 0.0
  outer loop
    vertex 1308.742542123685 1915.3416768751995 -3.0000000000002185
    vertex 1308.742542123685 1905.3416768751997 -5.999999999999615
    vertex 1308.742542123685 1905.3416768751997 -2.999999999999616
  endloop
endfacet
facet normal -1.0 0.0 0.0
  outer loop
    vertex 1308.742542123685 1905.3416768751997 -5.999999999999615
    vertex 1308.742542123685 1915.3416768751995 -3.0000000000002185
    vertex 1308.742542123685 1915.3416768751995 -5.999999999999615
  endloop
endfacet
facet normal -2.862265979786095e-14 2.862265979786147e-14 -1.0
  outer loop
    vertex 1308.742542123685 1860.874273845673 -2.999999999999616
    vertex 1298.7425421236849 1850.874273845673 -2.999999999999616
    vertex 1298.7425421236849 1860.874273845673 -2.999999999999616
  endloop
endfacet
facet normal -2.862265979786095e-14 2.862265979786147e-14 -1.0
  outer loop
    vertex 1298.7425421236849 1850.874273845673 -2.999999999999616
    vertex 1308.742542123685 1860.874273845673 -2.999999999999616
    vertex 1308.742542123685 1850.874273845673 -3.0000000000001883
  endloop
endfacet
facet normal 1.0 -0.0 -0.0
  outer loop
    vertex 1298.7425421236849 1860.874273845673 -5.999999999999615
    vertex 1298.7425421236849 1850.874273845673 -2.999999999999616
    vertex 1298.7425421236849 1850.874273845673 -5.999999999999615
  endloop
endfacet
facet normal 1.0 -0.0 -0.0
  outer loop
    vertex 1298.7425421236849 1850.874273845673 -2.999999999999616
    vertex 1298.7425421236849 1860.874273845673 -5.999999999999615
    vertex 1298.7425421236849 1860.874273845673 -2.999999999999616
  endloop
endfacet
facet normal 0.0 -1.0 0.0
  outer loop
    vertex 1308.742542123685 1860.874273845673 -2.999999999999616
    vertex 1298.7425421236849 1860.874273845673 -5.999999999999615
    vertex 1308.742542123685 1860.874273845673 -5.999999999999615
  endloop
endfacet
facet normal 0.0 -1.0 0.0
  outer loop
    vertex 1298.7425421236849 1860.874273845673 -5.999999999999615
    vertex 1308.742542123685 1860.874273845673 -2.999999999999616
    vertex 1298.7425421236849 1860.874273845673 -2.999999999999616
  endloop
endfacet
facet normal -1.0 0.0 0.0
  outer loop
    vertex 1308.742542123685 1860.874273845673 -2.999999999999616
    vertex 1308.742542123685 1850.874273845673 -5.999999999999615
    vertex 1308.742542123685 1850.874273845673 -3.0000000000001883
  endloop
endfacet
facet normal -1.0 0.0 0.0
  outer loop
    vertex 1308.742542123685 1850.874273845673 -5.999999999999615
    vertex 1308.742542123685 1860.874273845673 -2.999999999999616
    vertex 1308.742542123685 1860.874273845673 -5.999999999999615
  endloop
endfacet
facet normal 2.5305361862325322e-14 -1.4486507760854511e-16 -1.0
  outer loop
    vertex 1364.742542123682 1906.9899148286004 3.2233766015827625e-13
    vertex 1351.7425421236824 1860.8580409836093 0.0
    vertex 1351.7425421236824 1907.0232518552264 0.0
  endloop
endfacet
facet normal 2.5305361862325322e-14 -1.4486507760854511e-16 -1.0
  outer loop
    vertex 1351.7425421236824 1860.8580409836093 0.0
    vertex 1364.742542123682 1906.9899148286004 3.2233766015827625e-13
    vertex 1364.7425421236821 1860.1117819025792 3.357146845127993e-13
  endloop
endfacet
facet normal 8.42247630122454e-15 1.809991723195357e-16 -1.0
  outer loop
    vertex 1376.9783378211105 1906.9447927487415 4.712126161757995e-13
    vertex 1364.7425421236821 1860.1117819025792 3.357146845127993e-13
    vertex 1364.742542123682 1906.9899148286004 3.2233766015827625e-13
  endloop
endfacet
facet normal 8.42247630122454e-15 1.809991723195357e-16 -1.0
  outer loop
    vertex 1364.7425421236821 1860.1117819025792 3.357146845127993e-13
    vertex 1376.9783378211105 1906.9447927487415 4.712126161757995e-13
    vertex 1382.3382036909275 1859.1017109617112 4.712126161757995e-13
  endloop
endfacet
facet normal 8.42247630122454e-15 1.809991723195357e-16 -1.0
  outer loop
    vertex 1382.3382036909275 1859.1017109617112 4.712126161757995e-13
    vertex 1376.9783378211105 1906.9447927487415 4.712126161757995e-13
    vertex 1382.3382036909275 1906.9447927487415 4.712126161757995e-13
  endloop
endfacet
facet normal -1.0 1.3047036324962688e-30 -1.2143061306022944e-14
  outer loop
    vertex 1351.7425421236824 1860.8580409836093 0.0
    vertex 1351.7425421236824 1850.5232518552264 0.0
    vertex 1351.7425421236824 1860.8580409836093 14.86263227490655
  endloop
endfacet
facet normal 2.0882095707293483e-14 2.640767466152886e-14 -1.0
  outer loop
    vertex 1370.4704387025522 1914.3452896111437 4.712126161757995e-13
    vertex 1364.742542123682 1911.8782916657171 2.928273504451517e-13
    vertex 1364.742542123682 1918.5232518552264 4.712126161757995e-13
  endloop
endfacet
facet normal 2.0882095707293483e-14 2.640767466152886e-14 -1.0
  outer loop
    vertex 1364.742542123682 1911.8782916657171 2.928273504451517e-13
    vertex 1370.4704387025522 1914.3452896111437 4.712126161757995e-13
    vertex 1375.7110193089807 1908.8029329980288 4.201790262723257e-13
  endloop
endfacet
facet normal 2.0882095707293483e-14 2.640767466152886e-14 -1.0
  outer loop
    vertex 1375.7110193089807 1908.8029329980288 4.201790262723257e-13
    vertex 1370.4704387025522 1914.3452896111437 4.712126161757995e-13
    vertex 1375.4037412997186 1909.2534634931378 4.712126161757995e-13
  endloop
endfacet
facet normal 3.251239482635565e-14 2.2299914028749872e-14 -1.0
  outer loop
    vertex 1364.742542123682 1918.5232518552264 4.712126161757995e-13
    vertex 1351.7425421236824 1915.5232518552264 0.0
    vertex 1351.7425421236824 1918.5232518552264 0.0
  endloop
endfacet
facet normal 3.251239482635565e-14 2.2299914028749872e-14 -1.0
  outer loop
    vertex 1351.7425421236824 1915.5232518552264 0.0
    vertex 1364.742542123682 1918.5232518552264 4.712126161757995e-13
    vertex 1364.742542123682 1911.8782916657171 2.928273504451517e-13
  endloop
endfacet
facet normal -0.07198281986526436 -4.503433805625163e-06 -0.9974058720621031
  outer loop
    vertex 1355.9727351998981 1907.0209353790374 14.557130530903947
    vertex 1351.7425421236824 1860.8580409836093 14.86263227490655
    vertex 1351.7425381039188 1907.0225327561388 14.862576594017968
  endloop
endfacet
facet normal -0.07198281986526436 -4.503433805625163e-06 -0.9974058720621031
  outer loop
    vertex 1351.7425421236824 1860.8580409836093 14.86263227490655
    vertex 1355.9727351998981 1907.0209353790374 14.557130530903947
    vertex 1355.9823505846746 1860.8219002300857 14.556797538233212
  endloop
endfacet
facet normal -0.2144581521636034 -4.6474662302147996e-05 -0.9767331768762022
  outer loop
    vertex 1361.9800382371996 1907.0140339935404 13.237707112823124
    vertex 1355.9823505846746 1860.8219002300857 14.556797538233212
    vertex 1355.9727351998981 1907.0209353790374 14.557130530903947
  endloop
endfacet
facet normal -0.2144581521636034 -4.6474662302147996e-05 -0.9767331768762022
  outer loop
    vertex 1355.9823505846746 1860.8219002300857 14.556797538233212
    vertex 1361.9800382371996 1907.0140339935404 13.237707112823124
    vertex 1361.9975122115613 1860.6658788727893 13.236494388133067
  endloop
endfacet
facet normal -0.3525524238985566 -0.00011409587771066596 -0.9357920577699853
  outer loop
    vertex 1367.7355230141625 1907.002690831544 11.069094219266466
    vertex 1361.9975122115613 1860.6658788727893 13.236494388133067
    vertex 1361.9800382371996 1907.0140339935404 13.237707112823124
  endloop
endfacet
facet normal -0.3525524238985566 -0.00011409587771066596 -0.9357920577699853
  outer loop
    vertex 1361.9975122115613 1860.6658788727893 13.236494388133067
    vertex 1367.7355230141625 1907.002690831544 11.069094219266466
    vertex 1367.7574111174404 1860.4094851603843 11.066807929686941
  endloop
endfacet
facet normal -0.4834166574167571 -0.00017392782311327146 -0.8753903729657542
  outer loop
    vertex 1373.119822382567 1906.9871411470638 8.09626827649992
    vertex 1367.7574111174404 1860.4094851603843 11.066807929686941
    vertex 1367.7355230141625 1907.002690831544 11.069094219266466
  endloop
endfacet
facet normal -0.4834166574167571 -0.00017392782311327146 -0.8753903729657542
  outer loop
    vertex 1367.7574111174404 1860.4094851603843 11.066807929686941
    vertex 1373.119822382567 1906.9871411470638 8.09626827649992
    vertex 1373.1411286279515 1860.0581016157803 8.093286811337906
  endloop
endfacet
facet normal -0.7127721946361537 -8.853536312940908e-05 -0.7013956021497786
  outer loop
    vertex 1378.0356433176953 1859.619104901849 4.378354738377809
    vertex 1382.3382036909275 1906.9447927487415 4.712126161757995e-13
    vertex 1382.3382036909275 1859.1017109617112 4.712126161757995e-13
  endloop
endfacet
facet normal -0.7127721946361537 -8.853536312940908e-05 -0.7013956021497786
  outer loop
    vertex 1382.3382036909275 1906.9447927487415 4.712126161757995e-13
    vertex 1378.0356433176953 1859.619104901849 4.378354738377809
    vertex 1378.021267475989 1906.9677074362164 4.380884865016257
  endloop
endfacet
facet normal -0.6043347887048108 -0.00018196553091271285 -0.7967304626093176
  outer loop
    vertex 1378.021267475989 1906.9677074362164 4.380884865016257
    vertex 1373.1411286279515 1860.0581016157803 8.093286811337906
    vertex 1373.119822382567 1906.9871411470638 8.09626827649992
  endloop
endfacet
facet normal -0.6043347887048108 -0.00018196553091271285 -0.7967304626093176
  outer loop
    vertex 1373.1411286279515 1860.0581016157803 8.093286811337906
    vertex 1378.021267475989 1906.9677074362164 4.380884865016257
    vertex 1378.0356433176953 1859.619104901849 4.378354738377809
  endloop
endfacet
facet normal -0.9999999999999978 -1.3860150701671287e-08 -6.649444970823906e-08
  outer loop
    vertex 1351.7425421236824 1858.0232518552264 15.0
    vertex 1351.7425421236824 1850.5232518552264 0.0
    vertex 1351.7425421236824 1847.5232518552261 0.0
  endloop
endfacet
facet normal -0.9999999999999978 -1.3860150701671287e-08 -6.649444970823906e-08
  outer loop
    vertex 1351.7425421236824 1850.5232518552264 0.0
    vertex 1351.7425421236824 1858.0232518552264 15.0
    vertex 1351.7425421236824 1860.8580409836093 14.86263227490655
  endloop
endfacet
facet normal -0.9999999999999978 -1.3860150701671287e-08 -6.649444970823906e-08
  outer loop
    vertex 1351.7425421236824 1860.8580409836093 14.86263227490655
    vertex 1351.7425421236824 1858.0232518552264 15.0
    vertex 1351.7425421236824 1907.0232518552264 15.0
  endloop
endfacet
facet normal -0.9999999999999978 -1.3860150701671287e-08 -6.649444970823906e-08
  outer loop
    vertex 1351.7425421236824 1860.8580409836093 14.86263227490655
    vertex 1351.7425421236824 1907.0232518552264 15.0
    vertex 1351.7425381039188 1907.0225327561388 14.862576594017968
  endloop
endfacet
facet normal -0.9999999999999978 -1.3860150701671287e-08 -6.649444970823906e-08
  outer loop
    vertex 1351.7425381039188 1907.0225327561388 14.862576594017968
    vertex 1351.7425421236824 1907.0232518552264 15.0
    vertex 1351.7425421236824 1915.5232518552264 0.0
  endloop
endfacet
facet normal -0.9999999999999978 -1.3860150701671287e-08 -6.649444970823906e-08
  outer loop
    vertex 1351.7425421236824 1915.5232518552264 0.0
    vertex 1351.7425421236824 1907.0232518552264 15.0
    vertex 1351.7425421236824 1918.5232518552264 0.0
  endloop
endfacet
facet normal 8.665457783687898e-15 4.594318325086647e-15 -1.0
  outer loop
    vertex 1364.7425421236821 1860.1117819025792 3.357146845127993e-13
    vertex 1376.9783378211102 1859.1017109617112 4.712126161757995e-13
    vertex 1364.7425421236821 1854.942370226662 3.1704862231589975e-13
  endloop
endfacet
facet normal 8.665457783687898e-15 4.594318325086647e-15 -1.0
  outer loop
    vertex 1376.9783378211102 1859.1017109617112 4.712126161757995e-13
    vertex 1364.7425421236821 1860.1117819025792 3.357146845127993e-13
    vertex 1382.3382036909275 1859.1017109617112 4.712126161757995e-13
  endloop
endfacet
facet normal 2.5004200317908085e-14 7.226246238300947e-16 -1.0
  outer loop
    vertex 1364.7425421236821 1860.1117819025792 3.357146845127993e-13
    vertex 1351.7425421236824 1850.5232518552264 0.0
    vertex 1351.7425421236824 1860.8580409836093 0.0
  endloop
endfacet
facet normal 2.5004200317908085e-14 7.226246238300947e-16 -1.0
  outer loop
    vertex 1351.7425421236824 1850.5232518552264 0.0
    vertex 1364.7425421236821 1860.1117819025792 3.357146845127993e-13
    vertex 1364.7425421236821 1854.942370226662 3.1704862231589975e-13
  endloop
endfacet
facet normal -0.03416286443642529 0.8205407448406171 -0.5705661966414621
  outer loop
    vertex 1351.7425421236824 1860.8580409836093 14.86263227490655
    vertex 1355.9823505846746 1860.8219002300857 14.556797538233212
    vertex 1351.7425421236824 1850.5232518552264 0.0
  endloop
endfacet
facet normal -0.10039722502895852 0.8257813789279491 -0.5549824424451097
  outer loop
    vertex 1355.9823505846746 1860.8219002300857 14.556797538233212
    vertex 1361.9975122115613 1860.6658788727893 13.236494388133067
    vertex 1351.7425421236824 1850.5232518552264 0.0
  endloop
endfacet
facet normal -0.15859031190507056 0.83920230619976 -0.520181316695301
  outer loop
    vertex 1361.9975122115613 1860.6658788727893 13.236494388133067
    vertex 1367.7574111174404 1860.4094851603843 11.066807929686941
    vertex 1351.7425421236824 1850.5232518552264 0.0
  endloop
endfacet
facet normal -0.20418797035867076 0.8581222395391128 -0.4710981795434836
  outer loop
    vertex 1367.7574111174404 1860.4094851603843 11.066807929686941
    vertex 1373.1411286279515 1860.0581016157803 8.093286811337906
    vertex 1351.7425421236824 1850.5232518552264 0.0
  endloop
endfacet
facet normal -0.23528842322354707 0.8793822728730866 -0.41391566297198923
  outer loop
    vertex 1373.1411286279515 1860.0581016157803 8.093286811337906
    vertex 1378.0356433176953 1859.619104901849 4.378354738377809
    vertex 1351.7425421236824 1850.5232518552264 0.0
  endloop
endfacet
facet normal 7.629135672029257e-18 0.9930901095237221 -0.11735431123807012
  outer loop
    vertex 1378.0356433176953 1859.619104901849 4.378354738377809
    vertex 1382.3382036909275 1859.1017109617112 4.712126161757995e-13
    vertex 1376.9783378211102 1859.1017109617112 4.712126161757995e-13
  endloop
endfacet
facet normal -0.32165753122624746 0.9462403028101157 -0.0341426704177648
  outer loop
    vertex 1378.0356433176953 1859.619104901849 4.378354738377809
    vertex 1364.7425421236821 1854.942370226662 3.1704862231589975e-13
    vertex 1351.7425421236824 1850.5232518552264 0.0
  endloop
endfacet
facet normal -0.32165753122624746 0.9462403028101157 -0.0341426704177648
  outer loop
    vertex 1364.7425421236821 1854.942370226662 3.1704862231589975e-13
    vertex 1378.0356433176953 1859.619104901849 4.378354738377809
    vertex 1376.9783378211102 1859.1017109617112 4.712126161757995e-13
  endloop
endfacet
facet normal -0.9999999999999636 0.0 -2.7046208198275974e-07
  outer loop
    vertex 1351.7425421236824 1915.5232518552264 0.0
    vertex 1351.7425421236824 1907.0232518552264 0.0
    vertex 1351.7425381039188 1907.0225327561388 14.862576594017968
  endloop
endfacet
facet normal -0.9601905052302246 -5.073261992017054e-05 0.2793460060425554
  outer loop
    vertex 1355.9823505846746 1860.8219002300857 14.556797538233212
    vertex 1351.7425421236824 1860.8580409836093 0.0
    vertex 1351.7425421236824 1850.5232518552264 0.0
  endloop
endfacet
facet normal -0.9601905052302246 -5.073261992017054e-05 0.2793460060425554
  outer loop
    vertex 1351.7425421236824 1860.8580409836093 0.0
    vertex 1355.9823505846746 1860.8219002300857 14.556797538233212
    vertex 1355.9727351998981 1907.0209353790374 14.557130530903947
  endloop
endfacet
facet normal -0.9601905052302246 -5.073261992017054e-05 0.2793460060425554
  outer loop
    vertex 1351.7425421236824 1860.8580409836093 0.0
    vertex 1355.9727351998981 1907.0209353790374 14.557130530903947
    vertex 1351.7425421236824 1907.0232518552264 0.0
  endloop
endfacet
facet normal -0.9601905052302246 -5.073261992017054e-05 0.2793460060425554
  outer loop
    vertex 1351.7425421236824 1907.0232518552264 0.0
    vertex 1355.9727351998981 1907.0209353790374 14.557130530903947
    vertex 1351.7425421236824 1915.5232518552264 0.0
  endloop
endfacet
facet normal -0.036153248899214105 -0.8674788931084494 -0.4961585559126954
  outer loop
    vertex 1351.7425381039188 1907.0225327561388 14.862576594017968
    vertex 1351.7425421236824 1915.5232518552264 0.0
    vertex 1355.9727351998981 1907.0209353790374 14.557130530903947
  endloop
endfacet
facet normal -0.790776027008529 -7.933676669404065e-05 0.6121056026653278
  outer loop
    vertex 1361.9975122115613 1860.6658788727893 13.236494388133067
    vertex 1351.7425421236824 1860.8580409836093 0.0
    vertex 1351.7425421236824 1850.5232518552264 0.0
  endloop
endfacet
facet normal -0.790776027008529 -7.933676669404065e-05 0.6121056026653278
  outer loop
    vertex 1351.7425421236824 1860.8580409836093 0.0
    vertex 1361.9975122115613 1860.6658788727893 13.236494388133067
    vertex 1361.9800382371996 1907.0140339935404 13.237707112823124
  endloop
endfacet
facet normal -0.790776027008529 -7.933676669404065e-05 0.6121056026653278
  outer loop
    vertex 1351.7425421236824 1860.8580409836093 0.0
    vertex 1361.9800382371996 1907.0140339935404 13.237707112823124
    vertex 1351.7425421236824 1907.0232518552264 0.0
  endloop
endfacet
facet normal -0.790776027008529 -7.933676669404065e-05 0.6121056026653278
  outer loop
    vertex 1351.7425421236824 1907.0232518552264 0.0
    vertex 1361.9800382371996 1907.0140339935404 13.237707112823124
    vertex 1351.7425421236824 1915.5232518552264 0.0
  endloop
endfacet
facet normal -0.10606180606260021 -0.8717479763425698 -0.4783370767956148
  outer loop
    vertex 1355.9727351998981 1907.0209353790374 14.557130530903947
    vertex 1351.7425421236824 1915.5232518552264 0.0
    vertex 1361.9800382371996 1907.0140339935404 13.237707112823124
  endloop
endfacet
facet normal 0.5688028377661132 7.82878030063851e-05 -0.8224739057381921
  outer loop
    vertex 1367.7355230141625 1907.002690831544 11.069094219266466
    vertex 1351.7425421236824 1907.0232518552264 0.0
    vertex 1351.7425421236824 1915.5232518552264 0.0
  endloop
endfacet
facet normal 0.5688028377661132 7.82878030063851e-05 -0.8224739057381921
  outer loop
    vertex 1351.7425421236824 1907.0232518552264 0.0
    vertex 1367.7355230141625 1907.002690831544 11.069094219266466
    vertex 1351.7425421236824 1860.8580409836093 0.0
  endloop
endfacet
facet normal 0.5688028377661132 7.82878030063851e-05 -0.8224739057381921
  outer loop
    vertex 1351.7425421236824 1860.8580409836093 0.0
    vertex 1367.7355230141625 1907.002690831544 11.069094219266466
    vertex 1351.7425421236824 1850.5232518552264 0.0
  endloop
endfacet
facet normal 0.5688028377661132 7.82878030063851e-05 -0.8224739057381921
  outer loop
    vertex 1351.7425421236824 1850.5232518552264 0.0
    vertex 1367.7355230141625 1907.002690831544 11.069094219266466
    vertex 1367.7574111174404 1860.4094851603843 11.066807929686941
  endloop
endfacet
facet normal 0.16696918134476943 0.8830769565579366 0.4385161129051358
  outer loop
    vertex 1361.9800382371996 1907.0140339935404 13.237707112823124
    vertex 1367.7355230141625 1907.002690831544 11.069094219266466
    vertex 1351.7425421236824 1915.5232518552264 0.0
  endloop
endfacet
facet normal 0.3539701470044759 5.663239421432147e-05 -0.9352567197419122
  outer loop
    vertex 1373.119822382567 1906.9871411470638 8.09626827649992
    vertex 1351.7425421236824 1907.0232518552264 0.0
    vertex 1351.7425421236824 1915.5232518552264 0.0
  endloop
endfacet
facet normal 0.3539701470044759 5.663239421432147e-05 -0.9352567197419122
  outer loop
    vertex 1351.7425421236824 1907.0232518552264 0.0
    vertex 1373.119822382567 1906.9871411470638 8.09626827649992
    vertex 1351.7425421236824 1860.8580409836093 0.0
  endloop
endfacet
facet normal 0.3539701470044759 5.663239421432147e-05 -0.9352567197419122
  outer loop
    vertex 1351.7425421236824 1860.8580409836093 0.0
    vertex 1373.119822382567 1906.9871411470638 8.09626827649992
    vertex 1351.7425421236824 1850.5232518552264 0.0
  endloop
endfacet
facet normal 0.3539701470044759 5.663239421432147e-05 -0.9352567197419122
  outer loop
    vertex 1351.7425421236824 1850.5232518552264 0.0
    vertex 1373.119822382567 1906.9871411470638 8.09626827649992
    vertex 1373.1411286279515 1860.0581016157803 8.093286811337906
  endloop
endfacet
facet normal 0.21391916368567462 0.898746939450486 0.3827434261178186
  outer loop
    vertex 1367.7355230141625 1907.002690831544 11.069094219266466
    vertex 1373.119822382567 1906.9871411470638 8.09626827649992
    vertex 1351.7425421236824 1915.5232518552264 0.0
  endloop
endfacet
facet normal 0.16434928085780795 2.6749135287705515e-05 -0.9864022065901947
  outer loop
    vertex 1378.021267475989 1906.9677074362164 4.380884865016257
    vertex 1351.7425421236824 1907.0232518552264 0.0
    vertex 1351.7425421236824 1915.5232518552264 0.0
  endloop
endfacet
facet normal 0.16434928085780795 2.6749135287705515e-05 -0.9864022065901947
  outer loop
    vertex 1351.7425421236824 1907.0232518552264 0.0
    vertex 1378.021267475989 1906.9677074362164 4.380884865016257
    vertex 1351.7425421236824 1860.8580409836093 0.0
  endloop
endfacet
facet normal 0.16434928085780795 2.6749135287705515e-05 -0.9864022065901947
  outer loop
    vertex 1351.7425421236824 1860.8580409836093 0.0
    vertex 1378.021267475989 1906.9677074362164 4.380884865016257
    vertex 1351.7425421236824 1850.5232518552264 0.0
  endloop
endfacet
facet normal 0.16434928085780795 2.6749135287705515e-05 -0.9864022065901947
  outer loop
    vertex 1351.7425421236824 1850.5232518552264 0.0
    vertex 1378.021267475989 1906.9677074362164 4.380884865016257
    vertex 1378.0356433176953 1859.619104901849 4.378354738377809
  endloop
endfacet
facet normal 0.245036891595887 0.9157148099562005 0.3184702632647286
  outer loop
    vertex 1373.119822382567 1906.9871411470638 8.09626827649992
    vertex 1378.021267475989 1906.9677074362164 4.380884865016257
    vertex 1351.7425421236824 1915.5232518552264 0.0
  endloop
endfacet
facet normal 1.0982633711395489e-14 -7.653719189603187e-15 -1.0
  outer loop
    vertex 1375.7110193089807 1908.8029329980288 4.201790262723257e-13
    vertex 1364.742542123682 1906.9899148286004 3.2233766015827625e-13
    vertex 1364.742542123682 1911.8782916657171 2.928273504451517e-13
  endloop
endfacet
facet normal 1.0982633711395489e-14 -7.653719189603187e-15 -1.0
  outer loop
    vertex 1364.742542123682 1906.9899148286004 3.2233766015827625e-13
    vertex 1375.7110193089807 1908.8029329980288 4.201790262723257e-13
    vertex 1376.9783378211105 1906.9447927487415 4.712126161757995e-13
  endloop
endfacet
facet normal 2.3447927092656423e-14 -1.5003970234303319e-15 -1.0
  outer loop
    vertex 1364.742542123682 1911.8782916657171 2.928273504451517e-13
    vertex 1351.7425421236824 1907.0232518552264 0.0
    vertex 1351.7425421236824 1915.5232518552264 0.0
  endloop
endfacet
facet normal 2.3447927092656423e-14 -1.5003970234303319e-15 -1.0
  outer loop
    vertex 1351.7425421236824 1907.0232518552264 0.0
    vertex 1364.742542123682 1911.8782916657171 2.928273504451517e-13
    vertex 1364.742542123682 1906.9899148286004 3.2233766015827625e-13
  endloop
endfacet
facet normal -0.26122029946745856 -0.9316600776192347 -0.25253406684376817
  outer loop
    vertex 1364.742542123682 1911.8782916657171 2.928273504451517e-13
    vertex 1378.021267475989 1906.9677074362164 4.380884865016257
    vertex 1351.7425421236824 1915.5232518552264 0.0
  endloop
endfacet
facet normal -0.26122029946745856 -0.9316600776192347 -0.25253406684376817
  outer loop
    vertex 1378.021267475989 1906.9677074362164 4.380884865016257
    vertex 1364.742542123682 1911.8782916657171 2.928273504451517e-13
    vertex 1375.7110193089807 1908.8029329980288 4.201790262723257e-13
  endloop
endfacet
facet normal -0.26122029946745856 -0.9316600776192347 -0.25253406684376817
  outer loop
    vertex 1378.021267475989 1906.9677074362164 4.380884865016257
    vertex 1375.7110193089807 1908.8029329980288 4.201790262723257e-13
    vertex 1382.3382036909275 1906.9447927487415 4.712126161757995e-13
  endloop
endfacet
facet normal 0.0 -2.7464875120729305e-14 -1.0
  outer loop
    vertex 1382.3382036909275 1906.9447927487415 4.712126161757995e-13
    vertex 1376.9783378211105 1906.9447927487415 4.712126161757995e-13
    vertex 1375.7110193089807 1908.8029329980288 4.201790262723257e-13
  endloop
endfacet
endsolid front
